<mxfile host="65bd71144e">
    <diagram id="-Bvenr9G4hMm7q4_ZwMA" name="Seite-1">
        <mxGraphModel dx="1185" dy="800" grid="1" gridSize="10" guides="1" tooltips="1" connect="1" arrows="1" fold="1" page="1" pageScale="1" pageWidth="2336" pageHeight="1654" math="0" shadow="0">
            <root>
                <mxCell id="0"/>
                <mxCell id="1" parent="0"/>
                <mxCell id="6" value="EloPage" style="rounded=0;whiteSpace=wrap;html=1;fontSize=24;fillColor=#fff2cc;strokeColor=#d6b656;verticalAlign=top;align=center;" vertex="1" parent="1">
                    <mxGeometry x="40" y="80" width="320" height="120" as="geometry"/>
                </mxCell>
                <mxCell id="2" value="interactive Confirmation and booking of Creations" style="text;html=1;strokeColor=none;fillColor=none;align=center;verticalAlign=middle;whiteSpace=wrap;rounded=0;fontSize=24;" vertex="1" parent="1">
                    <mxGeometry x="40" y="10" width="1080" height="30" as="geometry"/>
                </mxCell>
                <mxCell id="3" value="automatic Confirmation and booking of Creations" style="text;html=1;strokeColor=none;fillColor=none;align=center;verticalAlign=middle;whiteSpace=wrap;rounded=0;fontSize=24;" vertex="1" parent="1">
                    <mxGeometry x="1200" y="10" width="1080" height="30" as="geometry"/>
                </mxCell>
                <mxCell id="4" value="" style="endArrow=none;html=1;" edge="1" parent="1">
                    <mxGeometry width="50" height="50" relative="1" as="geometry">
                        <mxPoint x="1160" y="1650" as="sourcePoint"/>
                        <mxPoint x="1160" as="targetPoint"/>
                    </mxGeometry>
                </mxCell>
                <mxCell id="5" value="User erfasst Activity" style="rounded=1;whiteSpace=wrap;html=1;fontSize=20;fillColor=#dae8fc;strokeColor=#6c8ebf;" vertex="1" parent="1">
                    <mxGeometry x="80" y="140" width="240" height="40" as="geometry"/>
                </mxCell>
                <mxCell id="7" value="Gradido" style="rounded=0;whiteSpace=wrap;html=1;fontSize=24;fillColor=#d5e8d4;strokeColor=#82b366;verticalAlign=top;align=center;" vertex="1" parent="1">
                    <mxGeometry x="40" y="210" width="1080" height="150" as="geometry"/>
                </mxCell>
                <mxCell id="21" style="edgeStyle=none;html=1;entryX=0;entryY=0.5;entryDx=0;entryDy=0;fontSize=24;" edge="1" parent="1" source="8" target="9">
                    <mxGeometry relative="1" as="geometry"/>
                </mxCell>
                <mxCell id="8" value="Moderator überträgt&amp;nbsp; offene User-Activity aus EloPage" style="rounded=1;whiteSpace=wrap;html=1;fontSize=20;fillColor=#dae8fc;strokeColor=#6c8ebf;" vertex="1" parent="1">
                    <mxGeometry x="80" y="236" width="240" height="110" as="geometry"/>
                </mxCell>
                <mxCell id="9" value="admin_pending_creations" style="shape=process;whiteSpace=wrap;html=1;backgroundOutline=1;fontSize=20;size=0.05263157894736842;" vertex="1" parent="1">
                    <mxGeometry x="400" y="261" width="380" height="60" as="geometry"/>
                </mxCell>
                <mxCell id="29" value="" style="edgeStyle=none;html=1;fontSize=24;" edge="1" parent="1" source="10" target="9">
                    <mxGeometry relative="1" as="geometry"/>
                </mxCell>
                <mxCell id="10" value="users" style="shape=process;whiteSpace=wrap;html=1;backgroundOutline=1;fontSize=20;size=0.05263157894736842;" vertex="1" parent="1">
                    <mxGeometry x="880" y="261" width="170" height="60" as="geometry"/>
                </mxCell>
                <mxCell id="12" value="" style="endArrow=none;dashed=1;html=1;fontSize=24;" edge="1" parent="1">
                    <mxGeometry width="50" height="50" relative="1" as="geometry">
                        <mxPoint y="440" as="sourcePoint"/>
                        <mxPoint x="1160" y="440" as="targetPoint"/>
                    </mxGeometry>
                </mxCell>
                <mxCell id="13" value="IST-Process" style="text;html=1;strokeColor=none;fillColor=none;align=center;verticalAlign=middle;whiteSpace=wrap;rounded=0;fontSize=24;" vertex="1" parent="1">
                    <mxGeometry y="400" width="210" height="30" as="geometry"/>
                </mxCell>
                <mxCell id="14" value="SOLL-Process" style="text;html=1;strokeColor=none;fillColor=none;align=center;verticalAlign=middle;whiteSpace=wrap;rounded=0;fontSize=24;" vertex="1" parent="1">
                    <mxGeometry y="450" width="210" height="30" as="geometry"/>
                </mxCell>
                <mxCell id="15" value="Gradido" style="rounded=0;whiteSpace=wrap;html=1;fontSize=24;fillColor=#d5e8d4;strokeColor=#82b366;verticalAlign=top;align=center;" vertex="1" parent="1">
                    <mxGeometry x="40" y="520" width="1080" height="890" as="geometry"/>
                </mxCell>
                <mxCell id="18" value="PendingActivities" style="shape=process;whiteSpace=wrap;html=1;backgroundOutline=1;fontSize=20;size=0.05263157894736842;" vertex="1" parent="1">
                    <mxGeometry x="400" y="570" width="380" height="60" as="geometry"/>
                </mxCell>
                <mxCell id="30" value="" style="edgeStyle=none;html=1;fontSize=24;" edge="1" parent="1" source="19" target="18">
                    <mxGeometry relative="1" as="geometry"/>
                </mxCell>
                <mxCell id="19" value="users" style="shape=process;whiteSpace=wrap;html=1;backgroundOutline=1;fontSize=20;size=0.05263157894736842;" vertex="1" parent="1">
                    <mxGeometry x="880" y="570" width="170" height="60" as="geometry"/>
                </mxCell>
                <mxCell id="22" value="" style="edgeStyle=none;html=1;fontSize=24;" edge="1" parent="1" source="20" target="18">
                    <mxGeometry relative="1" as="geometry"/>
                </mxCell>
                <mxCell id="20" value="User erfasst Activity" style="rounded=1;whiteSpace=wrap;html=1;fontSize=20;fillColor=#dae8fc;strokeColor=#6c8ebf;" vertex="1" parent="1">
                    <mxGeometry x="90" y="580" width="240" height="40" as="geometry"/>
                </mxCell>
                <mxCell id="36" value="" style="edgeStyle=none;html=1;fontSize=24;" edge="1" parent="1" source="23" target="28">
                    <mxGeometry relative="1" as="geometry"/>
                </mxCell>
                <mxCell id="23" value="Moderator sucht unbestätigte PendingActivies" style="rounded=1;whiteSpace=wrap;html=1;fontSize=20;fillColor=#dae8fc;strokeColor=#6c8ebf;" vertex="1" parent="1">
                    <mxGeometry x="90" y="670" width="240" height="110" as="geometry"/>
                </mxCell>
                <mxCell id="27" value="" style="edgeStyle=none;html=1;fontSize=24;" edge="1" parent="1" source="25" target="23">
                    <mxGeometry relative="1" as="geometry"/>
                </mxCell>
                <mxCell id="25" value="PendingActivities&lt;br style=&quot;font-size: 20px&quot;&gt;&lt;font style=&quot;font-size: 14px&quot;&gt;ConfirmedAt == NULL &amp;amp;&amp;amp; ContributionID == NULL&lt;/font&gt;" style="shape=process;whiteSpace=wrap;html=1;backgroundOutline=1;fontSize=20;size=0.05263157894736842;" vertex="1" parent="1">
                    <mxGeometry x="400" y="695" width="380" height="60" as="geometry"/>
                </mxCell>
                <mxCell id="32" value="" style="edgeStyle=none;html=1;fontSize=24;" edge="1" parent="1" source="28" target="31">
                    <mxGeometry relative="1" as="geometry"/>
                </mxCell>
                <mxCell id="43" value="" style="edgeStyle=none;html=1;fontSize=14;" edge="1" parent="1" source="28" target="34">
                    <mxGeometry relative="1" as="geometry"/>
                </mxCell>
                <mxCell id="28" value="Moderator bestätigt PendingActivity" style="rounded=1;whiteSpace=wrap;html=1;fontSize=20;fillColor=#dae8fc;strokeColor=#6c8ebf;" vertex="1" parent="1">
                    <mxGeometry x="90" y="800" width="240" height="110" as="geometry"/>
                </mxCell>
                <mxCell id="31" value="PendingActivities&lt;br style=&quot;font-size: 20px&quot;&gt;&lt;div style=&quot;text-align: left&quot;&gt;&lt;span style=&quot;font-size: 14px&quot;&gt;ConfirmedAt = NOW&lt;/span&gt;&lt;/div&gt;&lt;span style=&quot;font-size: 14px ; line-height: 0.8&quot;&gt;&lt;div style=&quot;text-align: left&quot;&gt;&lt;span&gt;ModeratorID = own userID&lt;/span&gt;&lt;/div&gt;&lt;/span&gt;" style="shape=process;whiteSpace=wrap;html=1;backgroundOutline=1;fontSize=20;size=0.05263157894736842;" vertex="1" parent="1">
                    <mxGeometry x="400" y="810" width="380" height="90" as="geometry"/>
                </mxCell>
                <mxCell id="34" value="System liest PendingActivity und prüft fachliche Schöpfungsregeln" style="rounded=1;whiteSpace=wrap;html=1;fontSize=20;fillColor=#008a00;strokeColor=#005700;fontColor=#ffffff;" vertex="1" parent="1">
                    <mxGeometry x="90" y="970" width="240" height="140" as="geometry"/>
                </mxCell>
                <mxCell id="37" value="" style="edgeStyle=none;html=1;fontSize=12;exitX=0;exitY=0.5;exitDx=0;exitDy=0;" edge="1" parent="1" source="35" target="34">
                    <mxGeometry relative="1" as="geometry"/>
                </mxCell>
                <mxCell id="35" value="PendingActivites" style="shape=process;whiteSpace=wrap;html=1;backgroundOutline=1;fontSize=20;size=0.05263157894736842;" vertex="1" parent="1">
                    <mxGeometry x="400" y="960" width="380" height="60" as="geometry"/>
                </mxCell>
                <mxCell id="38" value="" style="edgeStyle=none;html=1;fontSize=24;" edge="1" parent="1" source="39">
                    <mxGeometry relative="1" as="geometry">
                        <mxPoint x="780" y="990" as="targetPoint"/>
                    </mxGeometry>
                </mxCell>
                <mxCell id="41" style="edgeStyle=none;html=1;entryX=1;entryY=0.5;entryDx=0;entryDy=0;fontSize=12;" edge="1" parent="1" source="39" target="40">
                    <mxGeometry relative="1" as="geometry"/>
                </mxCell>
                <mxCell id="39" value="users" style="shape=process;whiteSpace=wrap;html=1;backgroundOutline=1;fontSize=20;size=0.05263157894736842;" vertex="1" parent="1">
                    <mxGeometry x="880" y="990" width="170" height="60" as="geometry"/>
                </mxCell>
                <mxCell id="42" style="edgeStyle=none;html=1;fontSize=12;" edge="1" parent="1" source="40" target="34">
                    <mxGeometry relative="1" as="geometry"/>
                </mxCell>
                <mxCell id="40" value="Transactions" style="shape=process;whiteSpace=wrap;html=1;backgroundOutline=1;fontSize=20;size=0.05263157894736842;" vertex="1" parent="1">
                    <mxGeometry x="400" y="1030" width="380" height="60" as="geometry"/>
                </mxCell>
            </root>
        </mxGraphModel>
    </diagram>
</mxfile>